<?xml version="1.0" encoding="UTF-8" standalone="no"?>
<!DOCTYPE svg PUBLIC "-//W3C//DTD SVG 1.1//EN"
 "http://www.w3.org/Graphics/SVG/1.1/DTD/svg11.dtd">
<!-- Generated by graphviz version 2.43.0 (0)
 -->
<!-- Title: DependenciesGraph Pages: 1 -->
<svg width="468pt" height="150pt"
 viewBox="0.00 0.00 468.00 150.00" xmlns="http://www.w3.org/2000/svg" xmlns:xlink="http://www.w3.org/1999/xlink">
<g id="graph0" class="graph" transform="scale(1 1) rotate(0) translate(4 146)">
<title>DependenciesGraph</title>
<polygon fill="white" stroke="transparent" points="-4,4 -4,-146 464,-146 464,4 -4,4"/>
<!-- /home/runner/work/LunchPlaces/LunchPlaces/Packages/Mock -->
<g id="node1" class="node">
<title>/home/runner/work/LunchPlaces/LunchPlaces/Packages/Mock</title>
<polygon fill="none" stroke="black" points="457,-142 3,-142 3,-89 457,-89 457,-142"/>
<text text-anchor="middle" x="230" y="-126.8" font-family="Times,serif" font-size="14.00">mock</text>
<text text-anchor="middle" x="230" y="-111.8" font-family="Times,serif" font-size="14.00">/home/runner/work/LunchPlaces/LunchPlaces/Packages/Mock</text>
<text text-anchor="middle" x="230" y="-96.8" font-family="Times,serif" font-size="14.00">unspecified</text>
</g>
<!-- /home/runner/work/LunchPlaces/LunchPlaces/Packages/Model -->
<g id="node2" class="node">
<title>/home/runner/work/LunchPlaces/LunchPlaces/Packages/Model</title>
<polygon fill="none" stroke="black" points="460,-53 0,-53 0,0 460,0 460,-53"/>
<text text-anchor="middle" x="230" y="-37.8" font-family="Times,serif" font-size="14.00">model</text>
<text text-anchor="middle" x="230" y="-22.8" font-family="Times,serif" font-size="14.00">/home/runner/work/LunchPlaces/LunchPlaces/Packages/Model</text>
<text text-anchor="middle" x="230" y="-7.8" font-family="Times,serif" font-size="14.00">unspecified</text>
</g>
<!-- /home/runner/work/LunchPlaces/LunchPlaces/Packages/Mock&#45;&gt;/home/runner/work/LunchPlaces/LunchPlaces/Packages/Model -->
<g id="edge1" class="edge">
<title>/home/runner/work/LunchPlaces/LunchPlaces/Packages/Mock&#45;&gt;/home/runner/work/LunchPlaces/LunchPlaces/Packages/Model</title>
<path fill="none" stroke="black" d="M230,-88.87C230,-80.89 230,-71.93 230,-63.38"/>
<polygon fill="black" stroke="black" points="233.5,-63.25 230,-53.25 226.5,-63.25 233.5,-63.25"/>
</g>
</g>
</svg>
