<?xml version="1.0" encoding="UTF-8" standalone="no"?>
<!DOCTYPE svg PUBLIC "-//W3C//DTD SVG 1.1//EN"
 "http://www.w3.org/Graphics/SVG/1.1/DTD/svg11.dtd">
<!-- Generated by graphviz version 2.43.0 (0)
 -->
<!-- Title: DependenciesGraph Pages: 1 -->
<svg width="2963pt" height="417pt"
 viewBox="0.00 0.00 2963.00 417.00" xmlns="http://www.w3.org/2000/svg" xmlns:xlink="http://www.w3.org/1999/xlink">
<g id="graph0" class="graph" transform="scale(1 1) rotate(0) translate(4 413)">
<title>DependenciesGraph</title>
<polygon fill="white" stroke="transparent" points="-4,4 -4,-413 2959,-413 2959,4 -4,4"/>
<!-- /home/runner/work/LunchPlaces/LunchPlaces/Packages/Features -->
<g id="node1" class="node">
<title>/home/runner/work/LunchPlaces/LunchPlaces/Packages/Features</title>
<polygon fill="none" stroke="black" points="1658,-409 1179,-409 1179,-356 1658,-356 1658,-409"/>
<text text-anchor="middle" x="1418.5" y="-393.8" font-family="Times,serif" font-size="14.00">features</text>
<text text-anchor="middle" x="1418.5" y="-378.8" font-family="Times,serif" font-size="14.00">/home/runner/work/LunchPlaces/LunchPlaces/Packages/Features</text>
<text text-anchor="middle" x="1418.5" y="-363.8" font-family="Times,serif" font-size="14.00">unspecified</text>
</g>
<!-- /home/runner/work/LunchPlaces/LunchPlaces/Packages/Cache -->
<g id="node2" class="node">
<title>/home/runner/work/LunchPlaces/LunchPlaces/Packages/Cache</title>
<polygon fill="none" stroke="black" points="459,-320 0,-320 0,-267 459,-267 459,-320"/>
<text text-anchor="middle" x="229.5" y="-304.8" font-family="Times,serif" font-size="14.00">cache</text>
<text text-anchor="middle" x="229.5" y="-289.8" font-family="Times,serif" font-size="14.00">/home/runner/work/LunchPlaces/LunchPlaces/Packages/Cache</text>
<text text-anchor="middle" x="229.5" y="-274.8" font-family="Times,serif" font-size="14.00">unspecified</text>
</g>
<!-- /home/runner/work/LunchPlaces/LunchPlaces/Packages/Features&#45;&gt;/home/runner/work/LunchPlaces/LunchPlaces/Packages/Cache -->
<g id="edge1" class="edge">
<title>/home/runner/work/LunchPlaces/LunchPlaces/Packages/Features&#45;&gt;/home/runner/work/LunchPlaces/LunchPlaces/Packages/Cache</title>
<path fill="none" stroke="black" d="M1178.96,-368.51C987.82,-357.51 713.29,-340.33 473.5,-320 472.01,-319.87 470.51,-319.75 469.01,-319.62"/>
<polygon fill="black" stroke="black" points="469.3,-316.13 459.04,-318.75 468.69,-323.1 469.3,-316.13"/>
</g>
<!-- /home/runner/work/LunchPlaces/LunchPlaces/Packages/Core -->
<g id="node3" class="node">
<title>/home/runner/work/LunchPlaces/LunchPlaces/Packages/Core</title>
<polygon fill="none" stroke="black" points="538,-231 89,-231 89,-178 538,-178 538,-231"/>
<text text-anchor="middle" x="313.5" y="-215.8" font-family="Times,serif" font-size="14.00">core</text>
<text text-anchor="middle" x="313.5" y="-200.8" font-family="Times,serif" font-size="14.00">/home/runner/work/LunchPlaces/LunchPlaces/Packages/Core</text>
<text text-anchor="middle" x="313.5" y="-185.8" font-family="Times,serif" font-size="14.00">unspecified</text>
</g>
<!-- /home/runner/work/LunchPlaces/LunchPlaces/Packages/Features&#45;&gt;/home/runner/work/LunchPlaces/LunchPlaces/Packages/Core -->
<g id="edge2" class="edge">
<title>/home/runner/work/LunchPlaces/LunchPlaces/Packages/Features&#45;&gt;/home/runner/work/LunchPlaces/LunchPlaces/Packages/Core</title>
<path fill="none" stroke="black" d="M1178.74,-375.72C928.36,-368.04 564.06,-351.59 506.5,-320 480.86,-305.93 490.64,-284.89 467.5,-267 450.79,-254.08 431,-243.51 411.28,-235.01"/>
<polygon fill="black" stroke="black" points="412.51,-231.73 401.93,-231.13 409.82,-238.19 412.51,-231.73"/>
</g>
<!-- /home/runner/work/LunchPlaces/LunchPlaces/Packages/Localization -->
<g id="node4" class="node">
<title>/home/runner/work/LunchPlaces/LunchPlaces/Packages/Localization</title>
<polygon fill="none" stroke="black" points="1953,-231 1452,-231 1452,-178 1953,-178 1953,-231"/>
<text text-anchor="middle" x="1702.5" y="-215.8" font-family="Times,serif" font-size="14.00">localization</text>
<text text-anchor="middle" x="1702.5" y="-200.8" font-family="Times,serif" font-size="14.00">/home/runner/work/LunchPlaces/LunchPlaces/Packages/Localization</text>
<text text-anchor="middle" x="1702.5" y="-185.8" font-family="Times,serif" font-size="14.00">unspecified</text>
</g>
<!-- /home/runner/work/LunchPlaces/LunchPlaces/Packages/Features&#45;&gt;/home/runner/work/LunchPlaces/LunchPlaces/Packages/Localization -->
<g id="edge3" class="edge">
<title>/home/runner/work/LunchPlaces/LunchPlaces/Packages/Features&#45;&gt;/home/runner/work/LunchPlaces/LunchPlaces/Packages/Localization</title>
<path fill="none" stroke="black" d="M1601.35,-355.98C1640.85,-346.9 1674.89,-335.08 1688.5,-320 1707.4,-299.06 1709.74,-266.49 1708.02,-241.44"/>
<polygon fill="black" stroke="black" points="1711.48,-240.85 1707.07,-231.21 1704.51,-241.49 1711.48,-240.85"/>
</g>
<!-- /home/runner/work/LunchPlaces/LunchPlaces/Packages/Mock -->
<g id="node5" class="node">
<title>/home/runner/work/LunchPlaces/LunchPlaces/Packages/Mock</title>
<polygon fill="none" stroke="black" points="1395.5,-231 941.5,-231 941.5,-178 1395.5,-178 1395.5,-231"/>
<text text-anchor="middle" x="1168.5" y="-215.8" font-family="Times,serif" font-size="14.00">mock</text>
<text text-anchor="middle" x="1168.5" y="-200.8" font-family="Times,serif" font-size="14.00">/home/runner/work/LunchPlaces/LunchPlaces/Packages/Mock</text>
<text text-anchor="middle" x="1168.5" y="-185.8" font-family="Times,serif" font-size="14.00">unspecified</text>
</g>
<!-- /home/runner/work/LunchPlaces/LunchPlaces/Packages/Features&#45;&gt;/home/runner/work/LunchPlaces/LunchPlaces/Packages/Mock -->
<g id="edge4" class="edge">
<title>/home/runner/work/LunchPlaces/LunchPlaces/Packages/Features&#45;&gt;/home/runner/work/LunchPlaces/LunchPlaces/Packages/Mock</title>
<path fill="none" stroke="black" d="M1229.86,-355.99C1192.33,-347.04 1160.68,-335.27 1148.5,-320 1130.72,-297.72 1138.65,-265.17 1149.33,-240.46"/>
<polygon fill="black" stroke="black" points="1152.65,-241.63 1153.68,-231.08 1146.3,-238.68 1152.65,-241.63"/>
</g>
<!-- /home/runner/work/LunchPlaces/LunchPlaces/Packages/PlacesAPI -->
<g id="node7" class="node">
<title>/home/runner/work/LunchPlaces/LunchPlaces/Packages/PlacesAPI</title>
<polygon fill="none" stroke="black" points="1001.5,-320 515.5,-320 515.5,-267 1001.5,-267 1001.5,-320"/>
<text text-anchor="middle" x="758.5" y="-304.8" font-family="Times,serif" font-size="14.00">placesapi</text>
<text text-anchor="middle" x="758.5" y="-289.8" font-family="Times,serif" font-size="14.00">/home/runner/work/LunchPlaces/LunchPlaces/Packages/PlacesAPI</text>
<text text-anchor="middle" x="758.5" y="-274.8" font-family="Times,serif" font-size="14.00">unspecified</text>
</g>
<!-- /home/runner/work/LunchPlaces/LunchPlaces/Packages/Features&#45;&gt;/home/runner/work/LunchPlaces/LunchPlaces/Packages/PlacesAPI -->
<g id="edge6" class="edge">
<title>/home/runner/work/LunchPlaces/LunchPlaces/Packages/Features&#45;&gt;/home/runner/work/LunchPlaces/LunchPlaces/Packages/PlacesAPI</title>
<path fill="none" stroke="black" d="M1224.94,-355.98C1142.33,-345.1 1045.89,-332.38 962.2,-321.35"/>
<polygon fill="black" stroke="black" points="962.43,-317.85 952.06,-320.01 961.52,-324.79 962.43,-317.85"/>
</g>
<!-- /home/runner/work/LunchPlaces/LunchPlaces/Packages/UIComponents -->
<g id="node9" class="node">
<title>/home/runner/work/LunchPlaces/LunchPlaces/Packages/UIComponents</title>
<polygon fill="none" stroke="black" points="1679.5,-320 1157.5,-320 1157.5,-267 1679.5,-267 1679.5,-320"/>
<text text-anchor="middle" x="1418.5" y="-304.8" font-family="Times,serif" font-size="14.00">uicomponents</text>
<text text-anchor="middle" x="1418.5" y="-289.8" font-family="Times,serif" font-size="14.00">/home/runner/work/LunchPlaces/LunchPlaces/Packages/UIComponents</text>
<text text-anchor="middle" x="1418.5" y="-274.8" font-family="Times,serif" font-size="14.00">unspecified</text>
</g>
<!-- /home/runner/work/LunchPlaces/LunchPlaces/Packages/Features&#45;&gt;/home/runner/work/LunchPlaces/LunchPlaces/Packages/UIComponents -->
<g id="edge10" class="edge">
<title>/home/runner/work/LunchPlaces/LunchPlaces/Packages/Features&#45;&gt;/home/runner/work/LunchPlaces/LunchPlaces/Packages/UIComponents</title>
<path fill="none" stroke="black" d="M1418.5,-355.87C1418.5,-347.89 1418.5,-338.93 1418.5,-330.38"/>
<polygon fill="black" stroke="black" points="1422,-330.25 1418.5,-320.25 1415,-330.25 1422,-330.25"/>
</g>
<!-- https://github.com/pointfreeco/swift&#45;composable&#45;architecture.git -->
<g id="node10" class="node">
<title>https://github.com/pointfreeco/swift&#45;composable&#45;architecture.git</title>
<polygon fill="none" stroke="black" points="2449.5,-231 1971.5,-231 1971.5,-178 2449.5,-178 2449.5,-231"/>
<text text-anchor="middle" x="2210.5" y="-215.8" font-family="Times,serif" font-size="14.00">swift&#45;composable&#45;architecture</text>
<text text-anchor="middle" x="2210.5" y="-200.8" font-family="Times,serif" font-size="14.00">https://github.com/pointfreeco/swift&#45;composable&#45;architecture.git</text>
<text text-anchor="middle" x="2210.5" y="-185.8" font-family="Times,serif" font-size="14.00">0.38.3</text>
</g>
<!-- /home/runner/work/LunchPlaces/LunchPlaces/Packages/Features&#45;&gt;https://github.com/pointfreeco/swift&#45;composable&#45;architecture.git -->
<g id="edge14" class="edge">
<title>/home/runner/work/LunchPlaces/LunchPlaces/Packages/Features&#45;&gt;https://github.com/pointfreeco/swift&#45;composable&#45;architecture.git</title>
<path fill="none" stroke="black" d="M1617.9,-355.92C1650.33,-347.23 1682.7,-335.59 1711.5,-320 1740.8,-304.14 1734.67,-281.83 1764.5,-267 1784.38,-257.12 1874.45,-243.9 1968.49,-232.25"/>
<polygon fill="black" stroke="black" points="1968.99,-235.71 1978.49,-231.01 1968.14,-228.76 1968.99,-235.71"/>
</g>
<!-- https://github.com/pointfreeco/swift&#45;overture.git -->
<g id="node17" class="node">
<title>https://github.com/pointfreeco/swift&#45;overture.git</title>
<polygon fill="none" stroke="black" points="2596,-320 2233,-320 2233,-267 2596,-267 2596,-320"/>
<text text-anchor="middle" x="2414.5" y="-304.8" font-family="Times,serif" font-size="14.00">swift&#45;overture</text>
<text text-anchor="middle" x="2414.5" y="-289.8" font-family="Times,serif" font-size="14.00">https://github.com/pointfreeco/swift&#45;overture.git</text>
<text text-anchor="middle" x="2414.5" y="-274.8" font-family="Times,serif" font-size="14.00">0.5.0</text>
</g>
<!-- /home/runner/work/LunchPlaces/LunchPlaces/Packages/Features&#45;&gt;https://github.com/pointfreeco/swift&#45;overture.git -->
<g id="edge23" class="edge">
<title>/home/runner/work/LunchPlaces/LunchPlaces/Packages/Features&#45;&gt;https://github.com/pointfreeco/swift&#45;overture.git</title>
<path fill="none" stroke="black" d="M1658.21,-366.82C1815.94,-356.28 2027.15,-340.53 2222.57,-320.18"/>
<polygon fill="black" stroke="black" points="2223.17,-323.64 2232.75,-319.12 2222.44,-316.68 2223.17,-323.64"/>
</g>
<!-- https://github.com/pointfreeco/composable&#45;core&#45;location.git -->
<g id="node18" class="node">
<title>https://github.com/pointfreeco/composable&#45;core&#45;location.git</title>
<polygon fill="none" stroke="black" points="2215.5,-320 1773.5,-320 1773.5,-267 2215.5,-267 2215.5,-320"/>
<text text-anchor="middle" x="1994.5" y="-304.8" font-family="Times,serif" font-size="14.00">composable&#45;core&#45;location</text>
<text text-anchor="middle" x="1994.5" y="-289.8" font-family="Times,serif" font-size="14.00">https://github.com/pointfreeco/composable&#45;core&#45;location.git</text>
<text text-anchor="middle" x="1994.5" y="-274.8" font-family="Times,serif" font-size="14.00">0.2.0</text>
</g>
<!-- /home/runner/work/LunchPlaces/LunchPlaces/Packages/Features&#45;&gt;https://github.com/pointfreeco/composable&#45;core&#45;location.git -->
<g id="edge24" class="edge">
<title>/home/runner/work/LunchPlaces/LunchPlaces/Packages/Features&#45;&gt;https://github.com/pointfreeco/composable&#45;core&#45;location.git</title>
<path fill="none" stroke="black" d="M1587.43,-355.98C1659.08,-345.16 1742.67,-332.54 1815.39,-321.55"/>
<polygon fill="black" stroke="black" points="1816.21,-324.97 1825.58,-320.01 1815.17,-318.05 1816.21,-324.97"/>
</g>
<!-- /home/runner/work/LunchPlaces/LunchPlaces/Packages/Model -->
<g id="node6" class="node">
<title>/home/runner/work/LunchPlaces/LunchPlaces/Packages/Model</title>
<polygon fill="none" stroke="black" points="1311.5,-142 851.5,-142 851.5,-89 1311.5,-89 1311.5,-142"/>
<text text-anchor="middle" x="1081.5" y="-126.8" font-family="Times,serif" font-size="14.00">model</text>
<text text-anchor="middle" x="1081.5" y="-111.8" font-family="Times,serif" font-size="14.00">/home/runner/work/LunchPlaces/LunchPlaces/Packages/Model</text>
<text text-anchor="middle" x="1081.5" y="-96.8" font-family="Times,serif" font-size="14.00">unspecified</text>
</g>
<!-- /home/runner/work/LunchPlaces/LunchPlaces/Packages/Mock&#45;&gt;/home/runner/work/LunchPlaces/LunchPlaces/Packages/Model -->
<g id="edge5" class="edge">
<title>/home/runner/work/LunchPlaces/LunchPlaces/Packages/Mock&#45;&gt;/home/runner/work/LunchPlaces/LunchPlaces/Packages/Model</title>
<path fill="none" stroke="black" d="M1142.87,-177.87C1134.01,-169.01 1123.95,-158.95 1114.58,-149.58"/>
<polygon fill="black" stroke="black" points="1116.8,-146.85 1107.25,-142.25 1111.85,-151.8 1116.8,-146.85"/>
</g>
<!-- /home/runner/work/LunchPlaces/LunchPlaces/Packages/PlacesAPI&#45;&gt;/home/runner/work/LunchPlaces/LunchPlaces/Packages/Core -->
<g id="edge7" class="edge">
<title>/home/runner/work/LunchPlaces/LunchPlaces/Packages/PlacesAPI&#45;&gt;/home/runner/work/LunchPlaces/LunchPlaces/Packages/Core</title>
<path fill="none" stroke="black" d="M627.99,-266.98C573.32,-256.3 509.64,-243.85 453.95,-232.96"/>
<polygon fill="black" stroke="black" points="454.49,-229.5 444.01,-231.01 453.15,-236.37 454.49,-229.5"/>
</g>
<!-- /home/runner/work/LunchPlaces/LunchPlaces/Packages/PlacesAPI&#45;&gt;/home/runner/work/LunchPlaces/LunchPlaces/Packages/Model -->
<g id="edge8" class="edge">
<title>/home/runner/work/LunchPlaces/LunchPlaces/Packages/PlacesAPI&#45;&gt;/home/runner/work/LunchPlaces/LunchPlaces/Packages/Model</title>
<path fill="none" stroke="black" d="M627.78,-266.93C610.8,-258.22 595.51,-246.56 584.5,-231 570.9,-211.77 568.9,-195.65 584.5,-178 602.63,-157.49 723.23,-142.27 841.08,-132.11"/>
<polygon fill="black" stroke="black" points="841.71,-135.57 851.37,-131.23 841.11,-128.59 841.71,-135.57"/>
</g>
<!-- http://github.com/objcio/tiny&#45;networking.git -->
<g id="node8" class="node">
<title>http://github.com/objcio/tiny&#45;networking.git</title>
<polygon fill="none" stroke="black" points="923,-231 594,-231 594,-178 923,-178 923,-231"/>
<text text-anchor="middle" x="758.5" y="-215.8" font-family="Times,serif" font-size="14.00">tiny&#45;networking</text>
<text text-anchor="middle" x="758.5" y="-200.8" font-family="Times,serif" font-size="14.00">http://github.com/objcio/tiny&#45;networking.git</text>
<text text-anchor="middle" x="758.5" y="-185.8" font-family="Times,serif" font-size="14.00">unspecified</text>
</g>
<!-- /home/runner/work/LunchPlaces/LunchPlaces/Packages/PlacesAPI&#45;&gt;http://github.com/objcio/tiny&#45;networking.git -->
<g id="edge9" class="edge">
<title>/home/runner/work/LunchPlaces/LunchPlaces/Packages/PlacesAPI&#45;&gt;http://github.com/objcio/tiny&#45;networking.git</title>
<path fill="none" stroke="black" d="M758.5,-266.87C758.5,-258.89 758.5,-249.93 758.5,-241.38"/>
<polygon fill="black" stroke="black" points="762,-241.25 758.5,-231.25 755,-241.25 762,-241.25"/>
</g>
<!-- /home/runner/work/LunchPlaces/LunchPlaces/Packages/UIComponents&#45;&gt;/home/runner/work/LunchPlaces/LunchPlaces/Packages/Localization -->
<g id="edge11" class="edge">
<title>/home/runner/work/LunchPlaces/LunchPlaces/Packages/UIComponents&#45;&gt;/home/runner/work/LunchPlaces/LunchPlaces/Packages/Localization</title>
<path fill="none" stroke="black" d="M1501.79,-266.98C1535.6,-256.63 1574.8,-244.62 1609.54,-233.98"/>
<polygon fill="black" stroke="black" points="1610.67,-237.29 1619.21,-231.01 1608.62,-230.6 1610.67,-237.29"/>
</g>
<!-- /home/runner/work/LunchPlaces/LunchPlaces/Packages/UIComponents&#45;&gt;/home/runner/work/LunchPlaces/LunchPlaces/Packages/Mock -->
<g id="edge12" class="edge">
<title>/home/runner/work/LunchPlaces/LunchPlaces/Packages/UIComponents&#45;&gt;/home/runner/work/LunchPlaces/LunchPlaces/Packages/Mock</title>
<path fill="none" stroke="black" d="M1345.18,-266.98C1315.8,-256.76 1281.79,-244.93 1251.51,-234.39"/>
<polygon fill="black" stroke="black" points="1252.41,-231 1241.82,-231.01 1250.11,-237.61 1252.41,-231"/>
</g>
<!-- /home/runner/work/LunchPlaces/LunchPlaces/Packages/UIComponents&#45;&gt;/home/runner/work/LunchPlaces/LunchPlaces/Packages/Model -->
<g id="edge13" class="edge">
<title>/home/runner/work/LunchPlaces/LunchPlaces/Packages/UIComponents&#45;&gt;/home/runner/work/LunchPlaces/LunchPlaces/Packages/Model</title>
<path fill="none" stroke="black" d="M1423.25,-266.63C1426.39,-240.76 1426.53,-201.54 1404.5,-178 1390.57,-163.11 1359.25,-151.74 1321.35,-143.09"/>
<polygon fill="black" stroke="black" points="1322.09,-139.67 1311.57,-140.94 1320.59,-146.5 1322.09,-139.67"/>
</g>
<!-- https://github.com/pointfreeco/combine&#45;schedulers -->
<g id="node11" class="node">
<title>https://github.com/pointfreeco/combine&#45;schedulers</title>
<polygon fill="none" stroke="black" points="1709.5,-142 1329.5,-142 1329.5,-89 1709.5,-89 1709.5,-142"/>
<text text-anchor="middle" x="1519.5" y="-126.8" font-family="Times,serif" font-size="14.00">combine&#45;schedulers</text>
<text text-anchor="middle" x="1519.5" y="-111.8" font-family="Times,serif" font-size="14.00">https://github.com/pointfreeco/combine&#45;schedulers</text>
<text text-anchor="middle" x="1519.5" y="-96.8" font-family="Times,serif" font-size="14.00">0.6.0</text>
</g>
<!-- https://github.com/pointfreeco/swift&#45;composable&#45;architecture.git&#45;&gt;https://github.com/pointfreeco/combine&#45;schedulers -->
<g id="edge15" class="edge">
<title>https://github.com/pointfreeco/swift&#45;composable&#45;architecture.git&#45;&gt;https://github.com/pointfreeco/combine&#45;schedulers</title>
<path fill="none" stroke="black" d="M2005.22,-177.98C1919.81,-167.33 1819.36,-154.76 1719.58,-142.14"/>
<polygon fill="black" stroke="black" points="1719.98,-138.66 1709.62,-140.88 1719.1,-145.6 1719.98,-138.66"/>
</g>
<!-- https://github.com/pointfreeco/xctest&#45;dynamic&#45;overlay -->
<g id="node12" class="node">
<title>https://github.com/pointfreeco/xctest&#45;dynamic&#45;overlay</title>
<polygon fill="none" stroke="black" points="2116,-53 1713,-53 1713,0 2116,0 2116,-53"/>
<text text-anchor="middle" x="1914.5" y="-37.8" font-family="Times,serif" font-size="14.00">xctest&#45;dynamic&#45;overlay</text>
<text text-anchor="middle" x="1914.5" y="-22.8" font-family="Times,serif" font-size="14.00">https://github.com/pointfreeco/xctest&#45;dynamic&#45;overlay</text>
<text text-anchor="middle" x="1914.5" y="-7.8" font-family="Times,serif" font-size="14.00">0.3.3</text>
</g>
<!-- https://github.com/pointfreeco/swift&#45;composable&#45;architecture.git&#45;&gt;https://github.com/pointfreeco/xctest&#45;dynamic&#45;overlay -->
<g id="edge22" class="edge">
<title>https://github.com/pointfreeco/swift&#45;composable&#45;architecture.git&#45;&gt;https://github.com/pointfreeco/xctest&#45;dynamic&#45;overlay</title>
<path fill="none" stroke="black" d="M2401.19,-177.91C2470.07,-160.89 2522.2,-133.23 2482.5,-89 2458.37,-62.12 2277.83,-45.92 2126.67,-36.95"/>
<polygon fill="black" stroke="black" points="2126.49,-33.43 2116.3,-36.34 2126.08,-40.42 2126.49,-33.43"/>
</g>
<!-- https://github.com/pointfreeco/swift&#45;case&#45;paths -->
<g id="node13" class="node">
<title>https://github.com/pointfreeco/swift&#45;case&#45;paths</title>
<polygon fill="none" stroke="black" points="2473,-142 2120,-142 2120,-89 2473,-89 2473,-142"/>
<text text-anchor="middle" x="2296.5" y="-126.8" font-family="Times,serif" font-size="14.00">swift&#45;case&#45;paths</text>
<text text-anchor="middle" x="2296.5" y="-111.8" font-family="Times,serif" font-size="14.00">https://github.com/pointfreeco/swift&#45;case&#45;paths</text>
<text text-anchor="middle" x="2296.5" y="-96.8" font-family="Times,serif" font-size="14.00">0.9.1</text>
</g>
<!-- https://github.com/pointfreeco/swift&#45;composable&#45;architecture.git&#45;&gt;https://github.com/pointfreeco/swift&#45;case&#45;paths -->
<g id="edge17" class="edge">
<title>https://github.com/pointfreeco/swift&#45;composable&#45;architecture.git&#45;&gt;https://github.com/pointfreeco/swift&#45;case&#45;paths</title>
<path fill="none" stroke="black" d="M2235.84,-177.87C2244.6,-169.01 2254.54,-158.95 2263.8,-149.58"/>
<polygon fill="black" stroke="black" points="2266.51,-151.82 2271.05,-142.25 2261.53,-146.9 2266.51,-151.82"/>
</g>
<!-- https://github.com/pointfreeco/swift&#45;custom&#45;dump -->
<g id="node14" class="node">
<title>https://github.com/pointfreeco/swift&#45;custom&#45;dump</title>
<polygon fill="none" stroke="black" points="2101.5,-142 1727.5,-142 1727.5,-89 2101.5,-89 2101.5,-142"/>
<text text-anchor="middle" x="1914.5" y="-126.8" font-family="Times,serif" font-size="14.00">swift&#45;custom&#45;dump</text>
<text text-anchor="middle" x="1914.5" y="-111.8" font-family="Times,serif" font-size="14.00">https://github.com/pointfreeco/swift&#45;custom&#45;dump</text>
<text text-anchor="middle" x="1914.5" y="-96.8" font-family="Times,serif" font-size="14.00">0.5.0</text>
</g>
<!-- https://github.com/pointfreeco/swift&#45;composable&#45;architecture.git&#45;&gt;https://github.com/pointfreeco/swift&#45;custom&#45;dump -->
<g id="edge18" class="edge">
<title>https://github.com/pointfreeco/swift&#45;composable&#45;architecture.git&#45;&gt;https://github.com/pointfreeco/swift&#45;custom&#45;dump</title>
<path fill="none" stroke="black" d="M2123.69,-177.98C2088.3,-167.58 2047.24,-155.52 2010.92,-144.84"/>
<polygon fill="black" stroke="black" points="2011.89,-141.48 2001.31,-142.01 2009.92,-148.19 2011.89,-141.48"/>
</g>
<!-- https://github.com/pointfreeco/swift&#45;identified&#45;collections -->
<g id="node15" class="node">
<title>https://github.com/pointfreeco/swift&#45;identified&#45;collections</title>
<polygon fill="none" stroke="black" points="2955,-142 2530,-142 2530,-89 2955,-89 2955,-142"/>
<text text-anchor="middle" x="2742.5" y="-126.8" font-family="Times,serif" font-size="14.00">swift&#45;identified&#45;collections</text>
<text text-anchor="middle" x="2742.5" y="-111.8" font-family="Times,serif" font-size="14.00">https://github.com/pointfreeco/swift&#45;identified&#45;collections</text>
<text text-anchor="middle" x="2742.5" y="-96.8" font-family="Times,serif" font-size="14.00">0.4.0</text>
</g>
<!-- https://github.com/pointfreeco/swift&#45;composable&#45;architecture.git&#45;&gt;https://github.com/pointfreeco/swift&#45;identified&#45;collections -->
<g id="edge20" class="edge">
<title>https://github.com/pointfreeco/swift&#45;composable&#45;architecture.git&#45;&gt;https://github.com/pointfreeco/swift&#45;identified&#45;collections</title>
<path fill="none" stroke="black" d="M2366.52,-177.98C2432.43,-167.21 2509.27,-154.64 2576.25,-143.69"/>
<polygon fill="black" stroke="black" points="2577.18,-147.08 2586.48,-142.01 2576.05,-140.17 2577.18,-147.08"/>
</g>
<!-- https://github.com/pointfreeco/combine&#45;schedulers&#45;&gt;https://github.com/pointfreeco/xctest&#45;dynamic&#45;overlay -->
<g id="edge16" class="edge">
<title>https://github.com/pointfreeco/combine&#45;schedulers&#45;&gt;https://github.com/pointfreeco/xctest&#45;dynamic&#45;overlay</title>
<path fill="none" stroke="black" d="M1635.34,-88.98C1683.48,-78.38 1739.46,-66.05 1788.6,-55.23"/>
<polygon fill="black" stroke="black" points="1789.64,-58.58 1798.66,-53.01 1788.14,-51.75 1789.64,-58.58"/>
</g>
<!-- https://github.com/pointfreeco/swift&#45;custom&#45;dump&#45;&gt;https://github.com/pointfreeco/xctest&#45;dynamic&#45;overlay -->
<g id="edge19" class="edge">
<title>https://github.com/pointfreeco/swift&#45;custom&#45;dump&#45;&gt;https://github.com/pointfreeco/xctest&#45;dynamic&#45;overlay</title>
<path fill="none" stroke="black" d="M1914.5,-88.87C1914.5,-80.89 1914.5,-71.93 1914.5,-63.38"/>
<polygon fill="black" stroke="black" points="1918,-63.25 1914.5,-53.25 1911,-63.25 1918,-63.25"/>
</g>
<!-- https://github.com/apple/swift&#45;collections -->
<g id="node16" class="node">
<title>https://github.com/apple/swift&#45;collections</title>
<polygon fill="none" stroke="black" points="2898,-53 2587,-53 2587,0 2898,0 2898,-53"/>
<text text-anchor="middle" x="2742.5" y="-37.8" font-family="Times,serif" font-size="14.00">swift&#45;collections</text>
<text text-anchor="middle" x="2742.5" y="-22.8" font-family="Times,serif" font-size="14.00">https://github.com/apple/swift&#45;collections</text>
<text text-anchor="middle" x="2742.5" y="-7.8" font-family="Times,serif" font-size="14.00">1.0.2</text>
</g>
<!-- https://github.com/pointfreeco/swift&#45;identified&#45;collections&#45;&gt;https://github.com/apple/swift&#45;collections -->
<g id="edge21" class="edge">
<title>https://github.com/pointfreeco/swift&#45;identified&#45;collections&#45;&gt;https://github.com/apple/swift&#45;collections</title>
<path fill="none" stroke="black" d="M2742.5,-88.87C2742.5,-80.89 2742.5,-71.93 2742.5,-63.38"/>
<polygon fill="black" stroke="black" points="2746,-63.25 2742.5,-53.25 2739,-63.25 2746,-63.25"/>
</g>
<!-- https://github.com/pointfreeco/composable&#45;core&#45;location.git&#45;&gt;https://github.com/pointfreeco/swift&#45;composable&#45;architecture.git -->
<g id="edge25" class="edge">
<title>https://github.com/pointfreeco/composable&#45;core&#45;location.git&#45;&gt;https://github.com/pointfreeco/swift&#45;composable&#45;architecture.git</title>
<path fill="none" stroke="black" d="M2057.85,-266.98C2082.9,-256.89 2111.85,-245.23 2137.76,-234.8"/>
<polygon fill="black" stroke="black" points="2139.19,-238 2147.15,-231.01 2136.57,-231.5 2139.19,-238"/>
</g>
</g>
</svg>
