<?xml version="1.0" encoding="UTF-8" standalone="no"?>
<!DOCTYPE svg PUBLIC "-//W3C//DTD SVG 1.1//EN"
 "http://www.w3.org/Graphics/SVG/1.1/DTD/svg11.dtd">
<!-- Generated by graphviz version 2.43.0 (0)
 -->
<!-- Title: DependenciesGraph Pages: 1 -->
<svg width="424pt" height="404pt"
 viewBox="0.00 0.00 424.00 404.00" xmlns="http://www.w3.org/2000/svg" xmlns:xlink="http://www.w3.org/1999/xlink">
<g id="graph0" class="graph" transform="scale(1 1) rotate(0) translate(4 400)">
<title>DependenciesGraph</title>
<polygon fill="white" stroke="transparent" points="-4,4 -4,-400 420,-400 420,4 -4,4"/>
<!-- PlaceRow -->
<g id="node1" class="node">
<title>PlaceRow</title>
<polygon fill="none" stroke="black" points="86,-108 0,-108 0,-72 86,-72 86,-108"/>
<text text-anchor="middle" x="43" y="-86.3" font-family="Times,serif" font-size="14.00">PlaceRow</text>
</g>
<!-- Common -->
<g id="node2" class="node">
<title>Common</title>
<polygon fill="none" stroke="black" points="230,-36 150,-36 150,0 230,0 230,-36"/>
<text text-anchor="middle" x="190" y="-14.3" font-family="Times,serif" font-size="14.00">Common</text>
</g>
<!-- PlaceRow&#45;&gt;Common -->
<g id="edge1" class="edge">
<title>PlaceRow&#45;&gt;Common</title>
<path fill="none" stroke="black" d="M78.96,-71.88C98.88,-62.39 123.82,-50.51 145.02,-40.42"/>
<polygon fill="black" stroke="black" points="146.63,-43.53 154.16,-36.07 143.62,-37.21 146.63,-43.53"/>
</g>
<!-- PlaceList -->
<g id="node3" class="node">
<title>PlaceList</title>
<polygon fill="none" stroke="black" points="124,-180 42,-180 42,-144 124,-144 124,-180"/>
<text text-anchor="middle" x="83" y="-158.3" font-family="Times,serif" font-size="14.00">PlaceList</text>
</g>
<!-- PlaceList&#45;&gt;PlaceRow -->
<g id="edge3" class="edge">
<title>PlaceList&#45;&gt;PlaceRow</title>
<path fill="none" stroke="black" d="M73.11,-143.7C68.51,-135.64 62.94,-125.89 57.85,-116.98"/>
<polygon fill="black" stroke="black" points="60.77,-115.05 52.77,-108.1 54.7,-118.52 60.77,-115.05"/>
</g>
<!-- PlaceList&#45;&gt;Common -->
<g id="edge2" class="edge">
<title>PlaceList&#45;&gt;Common</title>
<path fill="none" stroke="black" d="M92.09,-143.86C102.22,-125.38 119.63,-95.45 138,-72 145.75,-62.11 155.13,-52.07 163.79,-43.43"/>
<polygon fill="black" stroke="black" points="166.44,-45.73 171.14,-36.23 161.55,-40.72 166.44,-45.73"/>
</g>
<!-- LocationService -->
<g id="node4" class="node">
<title>LocationService</title>
<polygon fill="none" stroke="black" points="349.5,-180 218.5,-180 218.5,-144 349.5,-144 349.5,-180"/>
<text text-anchor="middle" x="284" y="-158.3" font-family="Times,serif" font-size="14.00">LocationService</text>
</g>
<!-- LocationService&#45;&gt;Common -->
<g id="edge4" class="edge">
<title>LocationService&#45;&gt;Common</title>
<path fill="none" stroke="black" d="M272.66,-143.87C256.36,-119.24 226.17,-73.64 207.13,-44.88"/>
<polygon fill="black" stroke="black" points="209.82,-42.6 201.38,-36.19 203.98,-46.46 209.82,-42.6"/>
</g>
<!-- LocationAccess -->
<g id="node5" class="node">
<title>LocationAccess</title>
<polygon fill="none" stroke="black" points="387.5,-252 262.5,-252 262.5,-216 387.5,-216 387.5,-252"/>
<text text-anchor="middle" x="325" y="-230.3" font-family="Times,serif" font-size="14.00">LocationAccess</text>
</g>
<!-- LocationAccess&#45;&gt;Common -->
<g id="edge5" class="edge">
<title>LocationAccess&#45;&gt;Common</title>
<path fill="none" stroke="black" d="M340.01,-215.83C354.03,-197.57 371.14,-168.07 359,-144 334.16,-94.72 279.69,-60.05 239.27,-39.91"/>
<polygon fill="black" stroke="black" points="240.63,-36.68 230.1,-35.47 237.58,-42.98 240.63,-36.68"/>
</g>
<!-- LocationAccess&#45;&gt;LocationService -->
<g id="edge6" class="edge">
<title>LocationAccess&#45;&gt;LocationService</title>
<path fill="none" stroke="black" d="M314.87,-215.7C310.15,-207.64 304.44,-197.89 299.22,-188.98"/>
<polygon fill="black" stroke="black" points="302.09,-186.96 294.02,-180.1 296.05,-190.5 302.09,-186.96"/>
</g>
<!-- Home -->
<g id="node6" class="node">
<title>Home</title>
<polygon fill="none" stroke="black" points="161.5,-252 102.5,-252 102.5,-216 161.5,-216 161.5,-252"/>
<text text-anchor="middle" x="132" y="-230.3" font-family="Times,serif" font-size="14.00">Home</text>
</g>
<!-- Home&#45;&gt;Common -->
<g id="edge7" class="edge">
<title>Home&#45;&gt;Common</title>
<path fill="none" stroke="black" d="M136.65,-215.85C146.7,-178.75 170.54,-90.81 182.65,-46.1"/>
<polygon fill="black" stroke="black" points="186.09,-46.8 185.33,-36.23 179.34,-44.97 186.09,-46.8"/>
</g>
<!-- Home&#45;&gt;PlaceList -->
<g id="edge9" class="edge">
<title>Home&#45;&gt;PlaceList</title>
<path fill="none" stroke="black" d="M119.89,-215.7C114.13,-207.47 107.14,-197.48 100.79,-188.42"/>
<polygon fill="black" stroke="black" points="103.58,-186.29 94.97,-180.1 97.84,-190.3 103.58,-186.29"/>
</g>
<!-- Home&#45;&gt;LocationService -->
<g id="edge8" class="edge">
<title>Home&#45;&gt;LocationService</title>
<path fill="none" stroke="black" d="M161.67,-219.34C183.27,-209.39 212.95,-195.72 237.67,-184.34"/>
<polygon fill="black" stroke="black" points="239.25,-187.46 246.87,-180.1 236.32,-181.1 239.25,-187.46"/>
</g>
<!-- FeaturesTests -->
<g id="node7" class="node">
<title>FeaturesTests</title>
<polygon fill="none" stroke="black" points="237.5,-396 120.5,-396 120.5,-360 237.5,-360 237.5,-396"/>
<text text-anchor="middle" x="179" y="-374.3" font-family="Times,serif" font-size="14.00">FeaturesTests</text>
</g>
<!-- FeaturesTests&#45;&gt;PlaceRow -->
<g id="edge16" class="edge">
<title>FeaturesTests&#45;&gt;PlaceRow</title>
<path fill="none" stroke="black" d="M147.77,-359.87C133.11,-350.68 116.22,-338.31 104,-324 57.66,-269.74 49.2,-249.49 33,-180 28.22,-159.49 31.29,-135.78 35.25,-117.99"/>
<polygon fill="black" stroke="black" points="38.65,-118.81 37.63,-108.26 31.86,-117.15 38.65,-118.81"/>
</g>
<!-- FeaturesTests&#45;&gt;Common -->
<g id="edge11" class="edge">
<title>FeaturesTests&#45;&gt;Common</title>
<path fill="none" stroke="black" d="M237.58,-368.07C307.77,-353.66 416,-317.98 416,-235 416,-235 416,-235 416,-161 416,-78.47 306.61,-42.04 240.04,-27.52"/>
<polygon fill="black" stroke="black" points="240.65,-24.07 230.14,-25.45 239.22,-30.92 240.65,-24.07"/>
</g>
<!-- FeaturesTests&#45;&gt;PlaceList -->
<g id="edge15" class="edge">
<title>FeaturesTests&#45;&gt;PlaceList</title>
<path fill="none" stroke="black" d="M161.38,-359.79C151.74,-349.85 139.97,-336.81 131,-324 110.25,-294.36 103.65,-286.58 93,-252 86.79,-231.85 84.36,-208.07 83.44,-190.16"/>
<polygon fill="black" stroke="black" points="86.93,-189.97 83.05,-180.11 79.94,-190.24 86.93,-189.97"/>
</g>
<!-- FeaturesTests&#45;&gt;LocationService -->
<g id="edge13" class="edge">
<title>FeaturesTests&#45;&gt;LocationService</title>
<path fill="none" stroke="black" d="M192.54,-359.56C199.86,-349.55 208.68,-336.51 215,-324 237.93,-278.58 231.61,-262.17 253,-216 257.21,-206.91 262.51,-197.35 267.53,-188.89"/>
<polygon fill="black" stroke="black" points="270.6,-190.58 272.8,-180.21 264.62,-186.94 270.6,-190.58"/>
</g>
<!-- FeaturesTests&#45;&gt;LocationAccess -->
<g id="edge14" class="edge">
<title>FeaturesTests&#45;&gt;LocationAccess</title>
<path fill="none" stroke="black" d="M203.6,-359.98C217.22,-350.1 234.16,-337.06 248,-324 269.14,-304.06 290.55,-278.81 305.41,-260.3"/>
<polygon fill="black" stroke="black" points="308.28,-262.32 311.76,-252.31 302.8,-257.97 308.28,-262.32"/>
</g>
<!-- FeaturesTests&#45;&gt;Home -->
<g id="edge12" class="edge">
<title>FeaturesTests&#45;&gt;Home</title>
<path fill="none" stroke="black" d="M164.03,-359.56C156.45,-349.75 147.86,-336.91 143,-324 135.57,-304.24 132.92,-280.44 132.08,-262.42"/>
<polygon fill="black" stroke="black" points="135.57,-262.19 131.76,-252.3 128.58,-262.4 135.57,-262.19"/>
</g>
<!-- App -->
<g id="node8" class="node">
<title>App</title>
<polygon fill="none" stroke="black" points="206,-324 152,-324 152,-288 206,-288 206,-324"/>
<text text-anchor="middle" x="179" y="-302.3" font-family="Times,serif" font-size="14.00">App</text>
</g>
<!-- FeaturesTests&#45;&gt;App -->
<g id="edge10" class="edge">
<title>FeaturesTests&#45;&gt;App</title>
<path fill="none" stroke="black" d="M179,-359.7C179,-351.98 179,-342.71 179,-334.11"/>
<polygon fill="black" stroke="black" points="182.5,-334.1 179,-324.1 175.5,-334.1 182.5,-334.1"/>
</g>
<!-- App&#45;&gt;Common -->
<g id="edge17" class="edge">
<title>App&#45;&gt;Common</title>
<path fill="none" stroke="black" d="M179.66,-287.97C181.49,-240.29 186.69,-105.18 188.94,-46.63"/>
<polygon fill="black" stroke="black" points="192.45,-46.43 189.33,-36.31 185.45,-46.16 192.45,-46.43"/>
</g>
<!-- App&#45;&gt;LocationAccess -->
<g id="edge19" class="edge">
<title>App&#45;&gt;LocationAccess</title>
<path fill="none" stroke="black" d="M206.12,-292C226.96,-282.01 256.19,-267.99 280.45,-256.36"/>
<polygon fill="black" stroke="black" points="281.97,-259.51 289.48,-252.03 278.95,-253.2 281.97,-259.51"/>
</g>
<!-- App&#45;&gt;Home -->
<g id="edge18" class="edge">
<title>App&#45;&gt;Home</title>
<path fill="none" stroke="black" d="M167.38,-287.7C161.86,-279.47 155.15,-269.48 149.07,-260.42"/>
<polygon fill="black" stroke="black" points="151.96,-258.46 143.48,-252.1 146.15,-262.36 151.96,-258.46"/>
</g>
</g>
</svg>
