<?xml version="1.0" encoding="UTF-8" standalone="no"?>
<!DOCTYPE svg PUBLIC "-//W3C//DTD SVG 1.1//EN"
 "http://www.w3.org/Graphics/SVG/1.1/DTD/svg11.dtd">
<!-- Generated by graphviz version 2.43.0 (0)
 -->
<!-- Title: DependenciesGraph Pages: 1 -->
<svg width="1112pt" height="239pt"
 viewBox="0.00 0.00 1111.50 239.00" xmlns="http://www.w3.org/2000/svg" xmlns:xlink="http://www.w3.org/1999/xlink">
<g id="graph0" class="graph" transform="scale(1 1) rotate(0) translate(4 235)">
<title>DependenciesGraph</title>
<polygon fill="white" stroke="transparent" points="-4,4 -4,-235 1107.5,-235 1107.5,4 -4,4"/>
<!-- /home/runner/work/LunchPlaces/LunchPlaces/Packages/UIComponents -->
<g id="node1" class="node">
<title>/home/runner/work/LunchPlaces/LunchPlaces/Packages/UIComponents</title>
<polygon fill="none" stroke="black" points="1007.5,-231 485.5,-231 485.5,-178 1007.5,-178 1007.5,-231"/>
<text text-anchor="middle" x="746.5" y="-215.8" font-family="Times,serif" font-size="14.00">uicomponents</text>
<text text-anchor="middle" x="746.5" y="-200.8" font-family="Times,serif" font-size="14.00">/home/runner/work/LunchPlaces/LunchPlaces/Packages/UIComponents</text>
<text text-anchor="middle" x="746.5" y="-185.8" font-family="Times,serif" font-size="14.00">unspecified</text>
</g>
<!-- /home/runner/work/LunchPlaces/LunchPlaces/Packages/Localization -->
<g id="node2" class="node">
<title>/home/runner/work/LunchPlaces/LunchPlaces/Packages/Localization</title>
<polygon fill="none" stroke="black" points="501,-142 0,-142 0,-89 501,-89 501,-142"/>
<text text-anchor="middle" x="250.5" y="-126.8" font-family="Times,serif" font-size="14.00">localization</text>
<text text-anchor="middle" x="250.5" y="-111.8" font-family="Times,serif" font-size="14.00">/home/runner/work/LunchPlaces/LunchPlaces/Packages/Localization</text>
<text text-anchor="middle" x="250.5" y="-96.8" font-family="Times,serif" font-size="14.00">unspecified</text>
</g>
<!-- /home/runner/work/LunchPlaces/LunchPlaces/Packages/UIComponents&#45;&gt;/home/runner/work/LunchPlaces/LunchPlaces/Packages/Localization -->
<g id="edge1" class="edge">
<title>/home/runner/work/LunchPlaces/LunchPlaces/Packages/UIComponents&#45;&gt;/home/runner/work/LunchPlaces/LunchPlaces/Packages/Localization</title>
<path fill="none" stroke="black" d="M601.04,-177.98C539.71,-167.23 468.24,-154.69 405.89,-143.76"/>
<polygon fill="black" stroke="black" points="406.42,-140.29 395.96,-142.01 405.21,-147.19 406.42,-140.29"/>
</g>
<!-- /home/runner/work/LunchPlaces/LunchPlaces/Packages/Mock -->
<g id="node3" class="node">
<title>/home/runner/work/LunchPlaces/LunchPlaces/Packages/Mock</title>
<polygon fill="none" stroke="black" points="973.5,-142 519.5,-142 519.5,-89 973.5,-89 973.5,-142"/>
<text text-anchor="middle" x="746.5" y="-126.8" font-family="Times,serif" font-size="14.00">mock</text>
<text text-anchor="middle" x="746.5" y="-111.8" font-family="Times,serif" font-size="14.00">/home/runner/work/LunchPlaces/LunchPlaces/Packages/Mock</text>
<text text-anchor="middle" x="746.5" y="-96.8" font-family="Times,serif" font-size="14.00">unspecified</text>
</g>
<!-- /home/runner/work/LunchPlaces/LunchPlaces/Packages/UIComponents&#45;&gt;/home/runner/work/LunchPlaces/LunchPlaces/Packages/Mock -->
<g id="edge2" class="edge">
<title>/home/runner/work/LunchPlaces/LunchPlaces/Packages/UIComponents&#45;&gt;/home/runner/work/LunchPlaces/LunchPlaces/Packages/Mock</title>
<path fill="none" stroke="black" d="M746.5,-177.87C746.5,-169.89 746.5,-160.93 746.5,-152.38"/>
<polygon fill="black" stroke="black" points="750,-152.25 746.5,-142.25 743,-152.25 750,-152.25"/>
</g>
<!-- /home/runner/work/LunchPlaces/LunchPlaces/Packages/Model -->
<g id="node4" class="node">
<title>/home/runner/work/LunchPlaces/LunchPlaces/Packages/Model</title>
<polygon fill="none" stroke="black" points="1103.5,-53 643.5,-53 643.5,0 1103.5,0 1103.5,-53"/>
<text text-anchor="middle" x="873.5" y="-37.8" font-family="Times,serif" font-size="14.00">model</text>
<text text-anchor="middle" x="873.5" y="-22.8" font-family="Times,serif" font-size="14.00">/home/runner/work/LunchPlaces/LunchPlaces/Packages/Model</text>
<text text-anchor="middle" x="873.5" y="-7.8" font-family="Times,serif" font-size="14.00">unspecified</text>
</g>
<!-- /home/runner/work/LunchPlaces/LunchPlaces/Packages/UIComponents&#45;&gt;/home/runner/work/LunchPlaces/LunchPlaces/Packages/Model -->
<g id="edge4" class="edge">
<title>/home/runner/work/LunchPlaces/LunchPlaces/Packages/UIComponents&#45;&gt;/home/runner/work/LunchPlaces/LunchPlaces/Packages/Model</title>
<path fill="none" stroke="black" d="M902.98,-177.93C939.48,-168.68 971.08,-156.78 982.5,-142 996.9,-123.36 994.38,-109.34 982.5,-89 975.36,-76.77 964.79,-66.78 953,-58.69"/>
<polygon fill="black" stroke="black" points="954.55,-55.52 944.23,-53.12 950.79,-61.43 954.55,-55.52"/>
</g>
<!-- /home/runner/work/LunchPlaces/LunchPlaces/Packages/Mock&#45;&gt;/home/runner/work/LunchPlaces/LunchPlaces/Packages/Model -->
<g id="edge3" class="edge">
<title>/home/runner/work/LunchPlaces/LunchPlaces/Packages/Mock&#45;&gt;/home/runner/work/LunchPlaces/LunchPlaces/Packages/Model</title>
<path fill="none" stroke="black" d="M783.92,-88.87C797.62,-79.48 813.28,-68.75 827.63,-58.92"/>
<polygon fill="black" stroke="black" points="829.64,-61.79 835.91,-53.25 825.68,-56.01 829.64,-61.79"/>
</g>
</g>
</svg>
