<?xml version="1.0" encoding="UTF-8" standalone="no"?>
<!DOCTYPE svg PUBLIC "-//W3C//DTD SVG 1.1//EN"
 "http://www.w3.org/Graphics/SVG/1.1/DTD/svg11.dtd">
<!-- Generated by graphviz version 2.43.0 (0)
 -->
<!-- Title: DependenciesGraph Pages: 1 -->
<svg width="1282pt" height="150pt"
 viewBox="0.00 0.00 1282.00 150.00" xmlns="http://www.w3.org/2000/svg" xmlns:xlink="http://www.w3.org/1999/xlink">
<g id="graph0" class="graph" transform="scale(1 1) rotate(0) translate(4 146)">
<title>DependenciesGraph</title>
<polygon fill="white" stroke="transparent" points="-4,4 -4,-146 1278,-146 1278,4 -4,4"/>
<!-- /home/runner/work/LunchPlaces/LunchPlaces/Packages/PlacesAPI -->
<g id="node1" class="node">
<title>/home/runner/work/LunchPlaces/LunchPlaces/Packages/PlacesAPI</title>
<polygon fill="none" stroke="black" points="940.5,-142 454.5,-142 454.5,-89 940.5,-89 940.5,-142"/>
<text text-anchor="middle" x="697.5" y="-126.8" font-family="Times,serif" font-size="14.00">placesapi</text>
<text text-anchor="middle" x="697.5" y="-111.8" font-family="Times,serif" font-size="14.00">/home/runner/work/LunchPlaces/LunchPlaces/Packages/PlacesAPI</text>
<text text-anchor="middle" x="697.5" y="-96.8" font-family="Times,serif" font-size="14.00">unspecified</text>
</g>
<!-- /home/runner/work/LunchPlaces/LunchPlaces/Packages/Core -->
<g id="node2" class="node">
<title>/home/runner/work/LunchPlaces/LunchPlaces/Packages/Core</title>
<polygon fill="none" stroke="black" points="449,-53 0,-53 0,0 449,0 449,-53"/>
<text text-anchor="middle" x="224.5" y="-37.8" font-family="Times,serif" font-size="14.00">core</text>
<text text-anchor="middle" x="224.5" y="-22.8" font-family="Times,serif" font-size="14.00">/home/runner/work/LunchPlaces/LunchPlaces/Packages/Core</text>
<text text-anchor="middle" x="224.5" y="-7.8" font-family="Times,serif" font-size="14.00">unspecified</text>
</g>
<!-- /home/runner/work/LunchPlaces/LunchPlaces/Packages/PlacesAPI&#45;&gt;/home/runner/work/LunchPlaces/LunchPlaces/Packages/Core -->
<g id="edge1" class="edge">
<title>/home/runner/work/LunchPlaces/LunchPlaces/Packages/PlacesAPI&#45;&gt;/home/runner/work/LunchPlaces/LunchPlaces/Packages/Core</title>
<path fill="none" stroke="black" d="M558.78,-88.98C500.54,-78.27 432.7,-65.8 373.42,-54.89"/>
<polygon fill="black" stroke="black" points="373.69,-51.38 363.22,-53.01 372.42,-58.27 373.69,-51.38"/>
</g>
<!-- /home/runner/work/LunchPlaces/LunchPlaces/Packages/Model -->
<g id="node3" class="node">
<title>/home/runner/work/LunchPlaces/LunchPlaces/Packages/Model</title>
<polygon fill="none" stroke="black" points="927.5,-53 467.5,-53 467.5,0 927.5,0 927.5,-53"/>
<text text-anchor="middle" x="697.5" y="-37.8" font-family="Times,serif" font-size="14.00">model</text>
<text text-anchor="middle" x="697.5" y="-22.8" font-family="Times,serif" font-size="14.00">/home/runner/work/LunchPlaces/LunchPlaces/Packages/Model</text>
<text text-anchor="middle" x="697.5" y="-7.8" font-family="Times,serif" font-size="14.00">unspecified</text>
</g>
<!-- /home/runner/work/LunchPlaces/LunchPlaces/Packages/PlacesAPI&#45;&gt;/home/runner/work/LunchPlaces/LunchPlaces/Packages/Model -->
<g id="edge2" class="edge">
<title>/home/runner/work/LunchPlaces/LunchPlaces/Packages/PlacesAPI&#45;&gt;/home/runner/work/LunchPlaces/LunchPlaces/Packages/Model</title>
<path fill="none" stroke="black" d="M697.5,-88.87C697.5,-80.89 697.5,-71.93 697.5,-63.38"/>
<polygon fill="black" stroke="black" points="701,-63.25 697.5,-53.25 694,-63.25 701,-63.25"/>
</g>
<!-- http://github.com/objcio/tiny&#45;networking.git -->
<g id="node4" class="node">
<title>http://github.com/objcio/tiny&#45;networking.git</title>
<polygon fill="none" stroke="black" points="1274,-53 945,-53 945,0 1274,0 1274,-53"/>
<text text-anchor="middle" x="1109.5" y="-37.8" font-family="Times,serif" font-size="14.00">tiny&#45;networking</text>
<text text-anchor="middle" x="1109.5" y="-22.8" font-family="Times,serif" font-size="14.00">http://github.com/objcio/tiny&#45;networking.git</text>
<text text-anchor="middle" x="1109.5" y="-7.8" font-family="Times,serif" font-size="14.00">unspecified</text>
</g>
<!-- /home/runner/work/LunchPlaces/LunchPlaces/Packages/PlacesAPI&#45;&gt;http://github.com/objcio/tiny&#45;networking.git -->
<g id="edge3" class="edge">
<title>/home/runner/work/LunchPlaces/LunchPlaces/Packages/PlacesAPI&#45;&gt;http://github.com/objcio/tiny&#45;networking.git</title>
<path fill="none" stroke="black" d="M818.33,-88.98C868.74,-78.34 927.41,-65.95 978.83,-55.09"/>
<polygon fill="black" stroke="black" points="979.61,-58.51 988.67,-53.01 978.16,-51.66 979.61,-58.51"/>
</g>
</g>
</svg>
